<svg width="189" height="101" viewBox="0 0 189 101" fill="none" xmlns="http://www.w3.org/2000/svg">
<rect y="61" width="189" height="40" fill="#FF4E4E"/>
<path d="M0.82 49L7.462 15.79H13.94L20.582 49H14.965L13.653 41.333H7.872L6.519 49H0.82ZM8.487 37.479H12.997L10.742 23.539L8.487 37.479ZM25.3399 49L25.9139 15.79H32.1869L36.9019 38.791L41.8219 15.79H47.8899L48.5049 49H43.9949L43.5029 25.917L38.7879 49H35.1389L30.3419 25.835L29.8909 49H25.3399ZM53.2282 49L59.8702 15.79H66.3482L72.9902 49H67.3732L66.0612 41.333H60.2802L58.9272 49H53.2282ZM60.8952 37.479H65.4052L63.1502 23.539L60.8952 37.479ZM77.8301 49V15.79H82.0531L90.1301 34.732V15.79H95.1321V49H91.1141L82.9961 29.156V49H77.8301ZM104.993 49V20.259H99.7039V15.79H116.268V20.259H111.061V49H104.993ZM120.789 49V15.79H128.743C130.984 15.79 132.87 16.0633 134.401 16.61C135.959 17.1293 137.134 18.0313 137.927 19.316C138.747 20.6007 139.157 22.35 139.157 24.564C139.157 25.9033 139.034 27.106 138.788 28.172C138.542 29.238 138.118 30.1537 137.517 30.919C136.943 31.657 136.137 32.231 135.098 32.641L139.731 49H133.663L129.645 33.789H126.857V49H120.789ZM126.857 29.976H128.743C129.918 29.976 130.848 29.812 131.531 29.484C132.242 29.1287 132.747 28.582 133.048 27.844C133.349 27.0787 133.499 26.1083 133.499 24.933C133.499 23.2657 133.185 22.022 132.556 21.202C131.955 20.3547 130.793 19.931 129.071 19.931H126.857V29.976ZM143.591 49L150.233 15.79H156.711L163.353 49H157.736L156.424 41.333H150.643L149.29 49H143.591ZM151.258 37.479H155.768L153.513 23.539L151.258 37.479ZM168.192 49V15.79H172.415L180.492 34.732V15.79H185.494V49H181.476L173.358 29.156V49H168.192Z" fill="#3D3D3D"/>
<path d="M13.8234 79.209C13.55 79.209 13.3059 79.2676 13.091 79.3848C12.8762 79.498 12.6926 79.6641 12.5402 79.8828C12.3879 80.1016 12.2707 80.3691 12.1887 80.6855C12.1105 80.998 12.0715 81.3535 12.0715 81.752C12.0715 82.291 12.1398 82.7441 12.2766 83.1113C12.4133 83.4785 12.6203 83.7559 12.8977 83.9434C13.1789 84.1309 13.5305 84.2246 13.9523 84.2246C14.3352 84.2246 14.7023 84.1719 15.0539 84.0664C15.4094 83.9609 15.7668 83.834 16.1262 83.6855V85.6426C15.7473 85.8105 15.3586 85.9316 14.9602 86.0059C14.5656 86.0801 14.1457 86.1172 13.7004 86.1172C12.7707 86.1172 12.009 85.9336 11.4152 85.5664C10.8254 85.1953 10.3898 84.6816 10.1086 84.0254C9.83125 83.3691 9.69258 82.6074 9.69258 81.7402C9.69258 81.0918 9.78242 80.498 9.96211 79.959C10.1457 79.4199 10.4133 78.9531 10.7648 78.5586C11.1164 78.1602 11.55 77.8535 12.0656 77.6387C12.5852 77.4199 13.1789 77.3105 13.8469 77.3105C14.2609 77.3105 14.6965 77.3594 15.1535 77.457C15.6145 77.5508 16.0637 77.7031 16.5012 77.9141L15.7922 79.7363C15.4797 79.5879 15.1633 79.4629 14.843 79.3613C14.5227 79.2598 14.1828 79.209 13.8234 79.209ZM28.2176 81.7051C28.2176 82.3652 28.1375 82.9668 27.9773 83.5098C27.8211 84.0488 27.575 84.5137 27.2391 84.9043C26.9031 85.2949 26.4715 85.5957 25.9441 85.8066C25.4168 86.0137 24.7859 86.1172 24.0516 86.1172C23.3328 86.1172 22.7098 86.0137 22.1824 85.8066C21.659 85.5957 21.2273 85.2969 20.8875 84.9102C20.5477 84.5195 20.2957 84.0527 20.1316 83.5098C19.9676 82.9668 19.8855 82.3613 19.8855 81.6934C19.8855 80.8027 20.032 80.0293 20.325 79.373C20.6219 78.7129 21.0789 78.2031 21.6961 77.8438C22.3133 77.4805 23.1023 77.2988 24.0633 77.2988C25.0398 77.2988 25.8328 77.4805 26.4422 77.8438C27.0555 78.207 27.5047 78.7188 27.7898 79.3789C28.075 80.0391 28.2176 80.8145 28.2176 81.7051ZM22.323 81.7051C22.323 82.2207 22.3816 82.6641 22.4988 83.0352C22.616 83.4062 22.8016 83.6914 23.0555 83.8906C23.3094 84.0898 23.6414 84.1895 24.0516 84.1895C24.4773 84.1895 24.8152 84.0898 25.0652 83.8906C25.3191 83.6914 25.5008 83.4062 25.6102 83.0352C25.7234 82.6641 25.7801 82.2207 25.7801 81.7051C25.7801 80.9316 25.6512 80.3203 25.3934 79.8711C25.1355 79.4219 24.6922 79.1973 24.0633 79.1973C23.6453 79.1973 23.3074 79.2988 23.0496 79.502C22.7957 79.7051 22.6102 79.9941 22.493 80.3691C22.3797 80.7441 22.323 81.1895 22.323 81.7051ZM40.3207 86H37.2855L34.1566 79.9648H34.1039C34.1234 80.1484 34.141 80.3691 34.1566 80.627C34.1723 80.8848 34.1859 81.1484 34.1977 81.418C34.2094 81.6836 34.2152 81.9238 34.2152 82.1387V86H32.1645V77.4336H35.1879L38.3051 83.3867H38.3402C38.3285 83.1992 38.3168 82.9824 38.3051 82.7363C38.2934 82.4863 38.2816 82.2344 38.2699 81.9805C38.2621 81.7266 38.2582 81.502 38.2582 81.3066V77.4336H40.3207V86ZM51.9727 77.4336L49.166 86H46.4414L43.6465 77.4336H46.2481L47.4141 81.7754C47.457 81.9395 47.5059 82.1504 47.5606 82.4082C47.6191 82.6621 47.6719 82.916 47.7188 83.1699C47.7695 83.4238 47.8008 83.6309 47.8125 83.791C47.8281 83.6309 47.8574 83.4258 47.9004 83.1758C47.9434 82.9258 47.9902 82.6758 48.041 82.4258C48.0957 82.1719 48.1465 81.9629 48.1934 81.7988L49.3828 77.4336H51.9727ZM60.3902 86H55.3043V77.4336H60.3902V79.291H57.6188V80.6387H60.1852V82.4961H57.6188V84.1133H60.3902V86ZM72.4465 86H69.4113L66.2824 79.9648H66.2297C66.2492 80.1484 66.2668 80.3691 66.2824 80.627C66.298 80.8848 66.3117 81.1484 66.3234 81.418C66.3352 81.6836 66.341 81.9238 66.341 82.1387V86H64.2902V77.4336H67.3137L70.4309 83.3867H70.466C70.4543 83.1992 70.4426 82.9824 70.4309 82.7363C70.4191 82.4863 70.4074 82.2344 70.3957 81.9805C70.3879 81.7266 70.384 81.502 70.384 81.3066V77.4336H72.4465V86ZM80.4773 86H78.1629V79.3262H76.0711V77.4336H82.5633V79.3262H80.4773V86ZM86.1879 86V77.4336H88.5141V86H86.1879ZM100.787 81.7051C100.787 82.3652 100.707 82.9668 100.547 83.5098C100.391 84.0488 100.145 84.5137 99.8086 84.9043C99.4727 85.2949 99.041 85.5957 98.5137 85.8066C97.9863 86.0137 97.3555 86.1172 96.6211 86.1172C95.9023 86.1172 95.2793 86.0137 94.752 85.8066C94.2285 85.5957 93.7969 85.2969 93.457 84.9102C93.1172 84.5195 92.8652 84.0527 92.7012 83.5098C92.5371 82.9668 92.4551 82.3613 92.4551 81.6934C92.4551 80.8027 92.6016 80.0293 92.8945 79.373C93.1914 78.7129 93.6484 78.2031 94.2656 77.8438C94.8828 77.4805 95.6719 77.2988 96.6328 77.2988C97.6094 77.2988 98.4023 77.4805 99.0117 77.8438C99.625 78.207 100.074 78.7188 100.359 79.3789C100.645 80.0391 100.787 80.8145 100.787 81.7051ZM94.8926 81.7051C94.8926 82.2207 94.9512 82.6641 95.0684 83.0352C95.1855 83.4062 95.3711 83.6914 95.625 83.8906C95.8789 84.0898 96.2109 84.1895 96.6211 84.1895C97.0469 84.1895 97.3848 84.0898 97.6348 83.8906C97.8887 83.6914 98.0703 83.4062 98.1797 83.0352C98.293 82.6641 98.3496 82.2207 98.3496 81.7051C98.3496 80.9316 98.2207 80.3203 97.9629 79.8711C97.7051 79.4219 97.2617 79.1973 96.6328 79.1973C96.2148 79.1973 95.877 79.2988 95.6191 79.502C95.3652 79.7051 95.1797 79.9941 95.0625 80.3691C94.9492 80.7441 94.8926 81.1895 94.8926 81.7051ZM112.89 86H109.855L106.726 79.9648H106.673C106.693 80.1484 106.711 80.3691 106.726 80.627C106.742 80.8848 106.755 81.1484 106.767 81.418C106.779 81.6836 106.785 81.9238 106.785 82.1387V86H104.734V77.4336H107.757L110.875 83.3867H110.91C110.898 83.1992 110.886 82.9824 110.875 82.7363C110.863 82.4863 110.851 82.2344 110.839 81.9805C110.832 81.7266 110.828 81.502 110.828 81.3066V77.4336H112.89V86ZM126.473 79.209C126.2 79.209 125.956 79.2676 125.741 79.3848C125.526 79.498 125.343 79.6641 125.19 79.8828C125.038 80.1016 124.921 80.3691 124.839 80.6855C124.761 80.998 124.721 81.3535 124.721 81.752C124.721 82.291 124.79 82.7441 124.927 83.1113C125.063 83.4785 125.27 83.7559 125.548 83.9434C125.829 84.1309 126.18 84.2246 126.602 84.2246C126.985 84.2246 127.352 84.1719 127.704 84.0664C128.059 83.9609 128.417 83.834 128.776 83.6855V85.6426C128.397 85.8105 128.009 85.9316 127.61 86.0059C127.216 86.0801 126.796 86.1172 126.35 86.1172C125.421 86.1172 124.659 85.9336 124.065 85.5664C123.475 85.1953 123.04 84.6816 122.759 84.0254C122.481 83.3691 122.343 82.6074 122.343 81.7402C122.343 81.0918 122.432 80.498 122.612 79.959C122.796 79.4199 123.063 78.9531 123.415 78.5586C123.766 78.1602 124.2 77.8535 124.716 77.6387C125.235 77.4199 125.829 77.3105 126.497 77.3105C126.911 77.3105 127.346 77.3594 127.804 77.457C128.264 77.5508 128.714 77.7031 129.151 77.9141L128.442 79.7363C128.13 79.5879 127.813 79.4629 127.493 79.3613C127.173 79.2598 126.833 79.209 126.473 79.209ZM137.938 86H132.852V77.4336H137.938V79.291H135.166V80.6387H137.733V82.4961H135.166V84.1133H137.938V86ZM149.994 86H146.959L143.83 79.9648H143.777C143.797 80.1484 143.814 80.3691 143.83 80.627C143.846 80.8848 143.859 81.1484 143.871 81.418C143.883 81.6836 143.889 81.9238 143.889 82.1387V86H141.838V77.4336H144.861L147.979 83.3867H148.014C148.002 83.1992 147.99 82.9824 147.979 82.7363C147.967 82.4863 147.955 82.2344 147.943 81.9805C147.936 81.7266 147.932 81.502 147.932 81.3066V77.4336H149.994V86ZM158.025 86H155.711V79.3262H153.619V77.4336H160.111V79.3262H158.025V86ZM168.821 86H163.736V77.4336H168.821V79.291H166.05V80.6387H168.616V82.4961H166.05V84.1133H168.821V86ZM175.528 77.4336C176.305 77.4336 176.952 77.5293 177.468 77.7207C177.983 77.9082 178.37 78.1895 178.628 78.5645C178.889 78.9395 179.02 79.4062 179.02 79.9648C179.02 80.3125 178.962 80.6289 178.845 80.9141C178.727 81.1992 178.559 81.4551 178.341 81.6816C178.126 81.9043 177.868 82.0996 177.567 82.2676L180.063 86H177.438L175.622 82.8828H175.036V86H172.721V77.4336H175.528ZM175.493 79.1855H175.036V81.1426H175.47C175.825 81.1426 176.116 81.0645 176.343 80.9082C176.569 80.752 176.682 80.4727 176.682 80.0703C176.682 79.793 176.589 79.5762 176.401 79.4199C176.214 79.2637 175.911 79.1855 175.493 79.1855Z" fill="white"/>
</svg>
